<svg id="close_1_" data-name="close (1)" xmlns="http://www.w3.org/2000/svg" width="112.5" height="112.5" viewBox="0 0 112.5 112.5">
  <g id="Groupe_3" data-name="Groupe 3">
    <g id="Groupe_2" data-name="Groupe 2">
      <path id="Tracé_5" data-name="Tracé 5" d="M56.25,0A56.25,56.25,0,1,0,112.5,56.25,56.25,56.25,0,0,0,56.25,0Zm0,108.871A52.621,52.621,0,1,1,108.871,56.25,52.621,52.621,0,0,1,56.25,108.871Z" fill="#fff"/>
      <path id="Tracé_6" data-name="Tracé 6" d="M184.3,132.976a1.815,1.815,0,0,0-2.566,0l-23.1,23.1-23.1-23.1a1.815,1.815,0,1,0-2.61,2.521l.045.045,23.1,23.1-23.1,23.1a1.815,1.815,0,0,0,2.521,2.61l.044-.044,23.1-23.1,23.1,23.1a1.815,1.815,0,0,0,2.566-2.566l-23.1-23.1,23.1-23.1A1.815,1.815,0,0,0,184.3,132.976Z" transform="translate(-102.386 -102.386)" fill="#fff"/>
    </g>
  </g>
</svg>
